<?xml version="1.0" encoding="utf-8"?>
<!-- Generator: Adobe Illustrator 24.1.1, SVG Export Plug-In . SVG Version: 6.00 Build 0)  -->
<svg width="10px" height="10px" fill="blue" version="1.1" id="Layer_1" xmlns="http://www.w3.org/2000/svg" xmlns:xlink="http://www.w3.org/1999/xlink" x="0px" y="0px"
	 viewBox="0 0 512 512" style="enable-background:new 0 0 512 512;" xml:space="preserve">
<g>
	<path d="M102.4,76.8v25.6h307.2c14.1,0,25.6,11.5,25.6,25.6v307.2c0,14.1-11.5,25.6-25.6,25.6H102.4c-14.1,0-25.6-11.5-25.6-25.6
		V128c0-14.1,11.5-25.6,25.6-25.6V76.8V51.2C60,51.2,25.6,85.6,25.6,128v307.2c0,42.4,34.4,76.8,76.8,76.8h307.2
		c42.4,0,76.8-34.4,76.8-76.8V128c0-42.4-34.4-76.8-76.8-76.8H102.4V76.8z"/>
	<path d="M332.8,25.6V128c0,14.1,11.5,25.6,25.6,25.6S384,142.1,384,128V25.6C384,11.5,372.5,0,358.4,0S332.8,11.5,332.8,25.6"/>
	<path d="M128,25.6V128c0,14.1,11.5,25.6,25.6,25.6s25.6-11.5,25.6-25.6V25.6c0-14.1-11.5-25.6-25.6-25.6S128,11.5,128,25.6"/>
	<path d="M51.2,256h409.6c14.1,0,25.6-11.5,25.6-25.6c0-14.1-11.5-25.6-25.6-25.6H51.2c-14.1,0-25.6,11.5-25.6,25.6
		C25.6,244.5,37.1,256,51.2,256"/>
	<path d="M153.6,332.8v25.6h25.6v-25.6H153.6v25.6V332.8H128V384c0,6.7,2.7,13.3,7.5,18.1c4.8,4.8,11.4,7.5,18.1,7.5h51.2
		c6.7,0,13.3-2.7,18.1-7.5c4.8-4.8,7.5-11.4,7.5-18.1v-51.2c0-6.7-2.7-13.3-7.5-18.1c-4.8-4.8-11.4-7.5-18.1-7.5h-51.2
		c-6.7,0-13.3,2.7-18.1,7.5c-4.8,4.8-7.5,11.4-7.5,18.1H153.6z"/>
</g>
</svg>
