<?xml version="1.0" encoding="utf-8"?>
<!-- Svg Vector Icons : http://www.onlinewebfonts.com/icon -->
<!DOCTYPE svg PUBLIC "-//W3C//DTD SVG 1.1//EN" "http://www.w3.org/Graphics/SVG/1.1/DTD/svg11.dtd">
<svg width="32px" height="32px" fill="#888" version="1.1" xmlns="http://www.w3.org/2000/svg" xmlns:xlink="http://www.w3.org/1999/xlink" x="0px" y="0px" viewBox="0 0 1000 1000" enable-background="new 0 0 1000 1000" xml:space="preserve">
<metadata> Svg Vector Icons : http://www.onlinewebfonts.com/icon </metadata>
<g><g><g><path d="M216.3,533.4h250.3v250.3c0,18.4,15,33.4,33.4,33.4c18.4,0,33.4-15,33.4-33.4V533.4h250.3c18.4,0,33.4-15,33.4-33.4c0-18.4-15-33.4-33.4-33.4H533.4V216.3c0-18.4-15-33.4-33.4-33.4c-18.4,0-33.4,15-33.4,33.4v250.3H216.3c-18.4,0-33.4,15-33.4,33.4C183,518.4,198,533.4,216.3,533.4z"/><path d="M500,990c270.3,0,490-219.7,490-490c0-270.3-219.7-490-490-490C229.7,10,10,229.7,10,500C10,770.3,229.7,990,500,990z M500,76.7c233.6,0,423.3,189.7,423.3,423.3c0,233.6-189.7,423.3-423.3,423.3C266.4,923.3,76.7,733.6,76.7,500C76.7,266.4,266.4,76.7,500,76.7z"/></g></g><g></g><g></g><g></g><g></g><g></g><g></g><g></g><g></g><g></g><g></g><g></g><g></g><g></g><g></g><g></g></g>
</svg>